<?xml version="1.0" encoding="UTF-8"?>
<svg xmlns="http://www.w3.org/2000/svg" width="1200" height="630" viewBox="0 0 1200 630" role="img" aria-label="Matrix-style featured image: Security quick wins">
  <defs>
    <linearGradient id="bg" x1="0" x2="1" y1="0" y2="1">
      <stop offset="0" stop-color="#040704"/>
      <stop offset="1" stop-color="#07140c"/>
    </linearGradient>
    <filter id="glow" x="-20%" y="-20%" width="140%" height="140%">
      <feGaussianBlur stdDeviation="2.5" result="b"/>
      <feColorMatrix in="b" type="matrix" values="1 0 0 0 0  0 1 0 0 0  0 0 1 0 0  0 0 0 9 -4" result="g"/>
      <feMerge>
        <feMergeNode in="g"/>
        <feMergeNode in="SourceGraphic"/>
      </feMerge>
    </filter>
  </defs>

  <rect width="1200" height="630" fill="url(#bg)"/>

  <g opacity="0.12">
    <g font-family="ui-monospace, SFMono-Regular, Menlo, Monaco, Consolas, 'Liberation Mono', 'Courier New', monospace" font-size="20" fill="#00ff66">
      <text x="80" y="90">ssh -o StrictHostKeyChecking=ask</text>
      <text x="80" y="140">mfa_enabled = true</text>
      <text x="80" y="190">patches.apply(now)</text>
      <text x="80" y="240">backup.verify()</text>
      <text x="80" y="290">phish?  report()</text>
      <text x="80" y="340">least_privilege()</text>
      <text x="80" y="390">logs.observe()</text>
    </g>
  </g>

  <g filter="url(#glow)">
    <path d="M865 156c-62 0-116-31-146-78-30 47-84 78-146 78v128c0 115 75 218 146 252 71-34 146-137 146-252V156z" fill="none" stroke="#00ff66" stroke-width="6" opacity="0.9"/>
    <path d="M720 306l55 55 108-120" fill="none" stroke="#9dffcc" stroke-width="10" stroke-linecap="round" stroke-linejoin="round"/>

    <text x="78" y="250" fill="#d6ffe6" font-family="ui-monospace, SFMono-Regular, Menlo, Monaco, Consolas, 'Liberation Mono', 'Courier New', monospace" font-size="56" letter-spacing="2">5 SECURITY QUICK WINS</text>
    <text x="78" y="320" fill="#9dffcc" font-family="ui-monospace, SFMono-Regular, Menlo, Monaco, Consolas, 'Liberation Mono', 'Courier New', monospace" font-size="26" opacity="0.95">Practical hygiene that reduces real-world risk in under 30 minutes</text>
    <text x="78" y="382" fill="#00ff66" font-family="ui-monospace, SFMono-Regular, Menlo, Monaco, Consolas, 'Liberation Mono', 'Courier New', monospace" font-size="22" opacity="0.85">// lock it down • keep it patched • verify backups</text>
  </g>

  <rect x="60" y="430" width="1080" height="2" fill="#00ff66" opacity="0.55"/>
  <g font-family="ui-monospace, SFMono-Regular, Menlo, Monaco, Consolas, 'Liberation Mono', 'Courier New', monospace" font-size="16" fill="#6bffab" opacity="0.7">
    <text x="60" y="476">password manager • passkeys • MFA • updates • device encryption • phishing checks</text>
  </g>
</svg>
